# xmcd
#
# Track frame offsets:
#	150
#	15353
#	32424
#	59812
#	78604
#	97183
#	118600
#	134144
#	160965
#	183547
#	213456
#	238458
#
# Disc length: 3380 seconds
#
# Revision: 1
# Processed by: cddbd v1.4PL0 Copyright (c) Steve Scherf et al.
# Submitted via: CDmax 2.0
#
DISCID=b30d320c
DTITLE=Shabfas - Shabfas Live!
DYEAR=2003
DGENRE=R and B
TTITLE0=Turning Point
TTITLE1=Yonder's Wall
TTITLE2=It's a man's world
TTITLE3=Sex Machine
TTITLE4=Ain't that a Bitch!
TTITLE5=Driving Wheel
TTITLE6=Dancin' in the streets
TTITLE7=Blues in C/When you got a heartache
TTITLE8=Stones in my pathway
TTITLE9=Mister Magic
TTITLE10=Coming Home
TTITLE11=I'll play the blues for you
EXTD=
EXTT0=
EXTT1=
EXTT2=
EXTT3=
EXTT4=
EXTT5=
EXTT6=
EXTT7=
EXTT8=
EXTT9=
EXTT10=
EXTT11=
PLAYORDER=
